<?xml version="1.0" encoding="UTF-8"?>
<svg width="888px" height="130px" viewBox="0 0 888 130" version="1.1" xmlns="http://www.w3.org/2000/svg" xmlns:xlink="http://www.w3.org/1999/xlink">
    <!-- Generator: Sketch 47.1 (45422) - http://www.bohemiancoding.com/sketch -->
    <title>Open Source Blueprint_Ma Logo@2x</title>
    <desc>Created with Sketch.</desc>
    <defs>
        <linearGradient x1="13.2263485%" y1="13.0966785%" x2="100.024032%" y2="99.0434052%" id="linearGradient-1">
            <stop stop-color="#FFA200" offset="0%"></stop>
            <stop stop-color="#FFFFFF" stop-opacity="0" offset="100%"></stop>
        </linearGradient>
    </defs>
    <g id="HACK-17-DS_Open-Source-Blueprint_Logo_B" stroke="none" stroke-width="1" fill="none" fill-rule="evenodd">
        <g id="Open-Source-Blueprint_Ma-Logo">
            <g id="Group-2" transform="translate(65.000000, 15.000000)">
                <g id="Group">
                    <rect id="Rectangle" fill="#FFC14D" x="0" y="0" width="100" height="100" rx="12"></rect>
                    <rect id="Rectangle" fill="url(#linearGradient-1)" style="mix-blend-mode: multiply;" transform="translate(50.000000, 50.000000) rotate(-180.000000) translate(-50.000000, -50.000000) " x="0" y="0" width="100" height="100" rx="12"></rect>
                </g>
                <path d="M128.551758,35.140625 L138.313477,59.5039062 L148.075195,35.140625 L153.181641,35.140625 L153.181641,65 L149.244141,65 L149.244141,53.3720703 L149.613281,40.8212891 L139.810547,65 L136.795898,65 L127.013672,40.8828125 L127.40332,53.3720703 L127.40332,65 L123.46582,65 L123.46582,35.140625 L128.551758,35.140625 Z M158.53418,53.7001953 C158.53418,51.5263563 158.961422,49.5712977 159.815918,47.8349609 C160.670414,46.0986241 161.859856,44.7587938 163.384277,43.8154297 C164.908699,42.8720656 166.648428,42.4003906 168.603516,42.4003906 C171.625015,42.4003906 174.068838,43.4462786 175.935059,45.5380859 C177.801279,47.6298933 178.734375,50.412092 178.734375,53.8847656 L178.734375,54.1513672 C178.734375,56.3115342 178.320805,58.2495031 177.493652,59.965332 C176.6665,61.6811609 175.483894,63.0175733 173.945801,63.9746094 C172.407707,64.9316454 170.640635,65.4101562 168.644531,65.4101562 C165.636704,65.4101562 163.199716,64.3642683 161.333496,62.2724609 C159.467276,60.1806536 158.53418,57.4121266 158.53418,53.9667969 L158.53418,53.7001953 Z M162.348633,54.1513672 C162.348633,56.612317 162.919428,58.5878832 164.061035,60.078125 C165.202642,61.5683668 166.730459,62.3134766 168.644531,62.3134766 C170.572275,62.3134766 172.10351,61.558113 173.238281,60.0473633 C174.373053,58.5366135 174.94043,56.420912 174.94043,53.7001953 C174.94043,51.2665894 174.362799,49.2944411 173.20752,47.7836914 C172.05224,46.2729417 170.517588,45.5175781 168.603516,45.5175781 C166.730459,45.5175781 165.219732,46.2626879 164.071289,47.7529297 C162.922846,49.2431715 162.348633,51.3759627 162.348633,54.1513672 Z M187.081055,42.8105469 L187.204102,45.5996094 C188.899423,43.4667862 191.114244,42.4003906 193.848633,42.4003906 C198.538109,42.4003906 200.90332,45.045872 200.944336,50.3369141 L200.944336,65 L197.150391,65 L197.150391,50.3164062 C197.136719,48.7167889 196.771,47.5341835 196.053223,46.7685547 C195.335446,46.0029259 194.217781,45.6201172 192.700195,45.6201172 C191.46972,45.6201172 190.389653,45.9482389 189.459961,46.6044922 C188.530269,47.2607455 187.805667,48.122065 187.286133,49.1884766 L187.286133,65 L183.492188,65 L183.492188,42.8105469 L187.081055,42.8105469 Z M205.763672,53.7207031 C205.763672,50.2617015 206.563469,47.5102641 208.163086,45.4663086 C209.762703,43.4223531 211.881823,42.4003906 214.520508,42.4003906 C217.227553,42.4003906 219.339836,43.3574123 220.857422,45.2714844 L221.041992,42.8105469 L224.507812,42.8105469 L224.507812,64.4667969 C224.507812,67.337905 223.656747,69.6005777 221.95459,71.2548828 C220.252433,72.909188 217.965835,73.7363281 215.094727,73.7363281 C213.495109,73.7363281 211.929695,73.3945347 210.398438,72.7109375 C208.86718,72.0273403 207.698246,71.0908263 206.891602,69.9013672 L208.860352,67.625 C210.487313,69.6347757 212.476551,70.6396484 214.828125,70.6396484 C216.673837,70.6396484 218.112788,70.1201224 219.14502,69.0810547 C220.177251,68.041987 220.693359,66.579111 220.693359,64.6923828 L220.693359,62.7851562 C219.175774,64.535165 217.104505,65.4101562 214.479492,65.4101562 C211.881823,65.4101562 209.779793,64.3642683 208.17334,62.2724609 C206.566886,60.1806536 205.763672,57.3300962 205.763672,53.7207031 Z M209.578125,54.1513672 C209.578125,56.6533328 210.090815,58.6186452 211.116211,60.0473633 C212.141607,61.4760814 213.577139,62.1904297 215.422852,62.1904297 C217.815442,62.1904297 219.57226,61.1035265 220.693359,58.9296875 L220.693359,48.7988281 C219.531244,46.6796769 217.788098,45.6201172 215.463867,45.6201172 C213.618155,45.6201172 212.175786,46.3378834 211.136719,47.7734375 C210.097651,49.2089916 209.578125,51.3349469 209.578125,54.1513672 Z M229.224609,53.7001953 C229.224609,51.5263563 229.651851,49.5712977 230.506348,47.8349609 C231.360844,46.0986241 232.550285,44.7587938 234.074707,43.8154297 C235.599129,42.8720656 237.338857,42.4003906 239.293945,42.4003906 C242.315445,42.4003906 244.759268,43.4462786 246.625488,45.5380859 C248.491709,47.6298933 249.424805,50.412092 249.424805,53.8847656 L249.424805,54.1513672 C249.424805,56.3115342 249.011235,58.2495031 248.184082,59.965332 C247.356929,61.6811609 246.174324,63.0175733 244.63623,63.9746094 C243.098137,64.9316454 241.331065,65.4101562 239.334961,65.4101562 C236.327133,65.4101562 233.890146,64.3642683 232.023926,62.2724609 C230.157706,60.1806536 229.224609,57.4121266 229.224609,53.9667969 L229.224609,53.7001953 Z M233.039062,54.1513672 C233.039062,56.612317 233.609858,58.5878832 234.751465,60.078125 C235.893072,61.5683668 237.420889,62.3134766 239.334961,62.3134766 C241.262705,62.3134766 242.79394,61.558113 243.928711,60.0473633 C245.063482,58.5366135 245.630859,56.420912 245.630859,53.7001953 C245.630859,51.2665894 245.053228,49.2944411 243.897949,47.7836914 C242.74267,46.2729417 241.208017,45.5175781 239.293945,45.5175781 C237.420889,45.5175781 235.910162,46.2626879 234.761719,47.7529297 C233.613276,49.2431715 233.039062,51.3759627 233.039062,54.1513672 Z M253.177734,53.7001953 C253.177734,51.5263563 253.604976,49.5712977 254.459473,47.8349609 C255.313969,46.0986241 256.50341,44.7587938 258.027832,43.8154297 C259.552254,42.8720656 261.291982,42.4003906 263.24707,42.4003906 C266.26857,42.4003906 268.712393,43.4462786 270.578613,45.5380859 C272.444834,47.6298933 273.37793,50.412092 273.37793,53.8847656 L273.37793,54.1513672 C273.37793,56.3115342 272.96436,58.2495031 272.137207,59.965332 C271.310054,61.6811609 270.127449,63.0175733 268.589355,63.9746094 C267.051262,64.9316454 265.28419,65.4101562 263.288086,65.4101562 C260.280258,65.4101562 257.843271,64.3642683 255.977051,62.2724609 C254.110831,60.1806536 253.177734,57.4121266 253.177734,53.9667969 L253.177734,53.7001953 Z M256.992188,54.1513672 C256.992188,56.612317 257.562983,58.5878832 258.70459,60.078125 C259.846197,61.5683668 261.374014,62.3134766 263.288086,62.3134766 C265.21583,62.3134766 266.747065,61.558113 267.881836,60.0473633 C269.016607,58.5366135 269.583984,56.420912 269.583984,53.7001953 C269.583984,51.2665894 269.006353,49.2944411 267.851074,47.7836914 C266.695795,46.2729417 265.161142,45.5175781 263.24707,45.5175781 C261.374014,45.5175781 259.863287,46.2626879 258.714844,47.7529297 C257.566401,49.2431715 256.992188,51.3759627 256.992188,54.1513672 Z M291.055664,59.1142578 C291.055664,58.0888621 290.669437,57.2924833 289.896973,56.7250977 C289.124508,56.157712 287.777842,55.6689474 285.856934,55.2587891 C283.936026,54.8486308 282.411627,54.3564482 281.283691,53.7822266 C280.155756,53.2080049 279.32178,52.524418 278.781738,51.7314453 C278.241697,50.9384726 277.97168,49.9951227 277.97168,48.9013672 C277.97168,47.0829987 278.740715,45.5449282 280.278809,44.2871094 C281.816902,43.0292906 283.782215,42.4003906 286.174805,42.4003906 C288.690442,42.4003906 290.730949,43.0497982 292.296387,44.3486328 C293.861824,45.6474674 294.644531,47.3085836 294.644531,49.3320312 L290.830078,49.3320312 C290.830078,48.2929636 290.389165,47.3974647 289.507324,46.6455078 C288.625484,45.8935509 287.514655,45.5175781 286.174805,45.5175781 C284.793938,45.5175781 283.713871,45.8183564 282.93457,46.4199219 C282.15527,47.0214874 281.765625,47.8076123 281.765625,48.7783203 C281.765625,49.6943405 282.127926,50.3847633 282.852539,50.8496094 C283.577152,51.3144554 284.886221,51.7587869 286.779785,52.1826172 C288.673349,52.6064474 290.208002,53.1123017 291.383789,53.7001953 C292.559576,54.2880889 293.43115,54.9956013 293.998535,55.8227539 C294.565921,56.6499065 294.849609,57.6581972 294.849609,58.8476562 C294.849609,60.830088 294.056649,62.4194276 292.470703,63.6157227 C290.884758,64.8120177 288.827161,65.4101562 286.297852,65.4101562 C284.520499,65.4101562 282.948249,65.0957063 281.581055,64.4667969 C280.21386,63.8378875 279.144047,62.9594783 278.371582,61.831543 C277.599117,60.7036076 277.212891,59.483405 277.212891,58.1708984 L281.006836,58.1708984 C281.075196,59.4423892 281.584468,60.4506799 282.534668,61.1958008 C283.484868,61.9409217 284.73925,62.3134766 286.297852,62.3134766 C287.733406,62.3134766 288.88525,62.0229521 289.753418,61.4418945 C290.621586,60.8608369 291.055664,60.0849658 291.055664,59.1142578 Z M309,65.4101562 C305.992172,65.4101562 303.544931,64.4223732 301.658203,62.4467773 C299.771475,60.4711815 298.828125,57.8291181 298.828125,54.5205078 L298.828125,53.8232422 C298.828125,51.6220593 299.248531,49.6567469 300.089355,47.9272461 C300.93018,46.1977453 302.105949,44.8442432 303.616699,43.8666992 C305.127449,42.8891553 306.76464,42.4003906 308.52832,42.4003906 C311.4131,42.4003906 313.655265,43.3505764 315.254883,45.2509766 C316.8545,47.1513767 317.654297,49.8720526 317.654297,53.4130859 L317.654297,54.9921875 L302.62207,54.9921875 C302.676758,57.1796984 303.315912,58.9467706 304.539551,60.293457 C305.76319,61.6401435 307.31835,62.3134766 309.205078,62.3134766 C310.544929,62.3134766 311.679683,62.0400418 312.609375,61.4931641 C313.539067,60.9462863 314.352536,60.2216842 315.049805,59.3193359 L317.367188,61.1240234 C315.507803,63.9814596 312.718769,65.4101562 309,65.4101562 Z M308.52832,45.5175781 C306.997063,45.5175781 305.711919,46.0747015 304.672852,47.1889648 C303.633784,48.3032282 302.991212,49.8652243 302.745117,51.875 L313.860352,51.875 L313.860352,51.5878906 C313.750976,49.6601466 313.23145,48.1665092 312.301758,47.1069336 C311.372066,46.047358 310.114266,45.5175781 308.52832,45.5175781 Z M346.139648,65 C345.920897,64.5624978 345.743165,63.7832087 345.606445,62.6621094 C343.842765,64.4941498 341.737317,65.4101562 339.290039,65.4101562 C337.102528,65.4101562 335.308112,64.7915101 333.906738,63.5541992 C332.505364,62.3168883 331.804688,60.7480564 331.804688,58.8476562 C331.804688,56.5370978 332.683097,54.7426822 334.439941,53.4643555 C336.196786,52.1860288 338.667953,51.546875 341.853516,51.546875 L345.544922,51.546875 L345.544922,49.8037109 C345.544922,48.4775324 345.148441,47.4213906 344.355469,46.6352539 C343.562496,45.8491172 342.393562,45.4560547 340.848633,45.4560547 C339.49511,45.4560547 338.360356,45.7978481 337.444336,46.4814453 C336.528316,47.1650425 336.070312,47.9921826 336.070312,48.9628906 L332.255859,48.9628906 C332.255859,47.8554632 332.648922,46.7856497 333.435059,45.753418 C334.221195,44.7211862 335.287591,43.9042999 336.634277,43.3027344 C337.980964,42.7011689 339.460929,42.4003906 341.074219,42.4003906 C343.630872,42.4003906 345.633782,43.0395444 347.083008,44.3178711 C348.532234,45.5961978 349.284179,47.3564341 349.338867,49.5986328 L349.338867,59.8115234 C349.338867,61.848643 349.59863,63.468744 350.118164,64.671875 L350.118164,65 L346.139648,65 Z M339.84375,62.1083984 C341.033209,62.1083984 342.161127,61.8007843 343.227539,61.1855469 C344.293951,60.5703094 345.066404,59.7705127 345.544922,58.7861328 L345.544922,54.2333984 L342.571289,54.2333984 C337.922828,54.2333984 335.598633,55.5937364 335.598633,58.3144531 C335.598633,59.5039122 335.995113,60.4335904 336.788086,61.1035156 C337.581059,61.7734408 338.599603,62.1083984 339.84375,62.1083984 Z M362.299805,59.8525391 L367.795898,42.8105469 L371.671875,42.8105469 L363.714844,65 L360.823242,65 L352.78418,42.8105469 L356.660156,42.8105469 L362.299805,59.8525391 Z M386.047852,46.2148438 C385.47363,46.1191401 384.851566,46.0712891 384.181641,46.0712891 C381.693347,46.0712891 380.004887,47.1308488 379.116211,49.25 L379.116211,65 L375.322266,65 L375.322266,42.8105469 L379.013672,42.8105469 L379.075195,45.3740234 C380.319342,43.3915917 382.082996,42.4003906 384.366211,42.4003906 C385.104496,42.4003906 385.665037,42.4960928 386.047852,42.6875 L386.047852,46.2148438 Z M388.119141,53.7001953 C388.119141,51.5263563 388.546382,49.5712977 389.400879,47.8349609 C390.255375,46.0986241 391.444817,44.7587938 392.969238,43.8154297 C394.49366,42.8720656 396.233389,42.4003906 398.188477,42.4003906 C401.209976,42.4003906 403.653799,43.4462786 405.52002,45.5380859 C407.38624,47.6298933 408.319336,50.412092 408.319336,53.8847656 L408.319336,54.1513672 C408.319336,56.3115342 407.905766,58.2495031 407.078613,59.965332 C406.251461,61.6811609 405.068855,63.0175733 403.530762,63.9746094 C401.992668,64.9316454 400.225596,65.4101562 398.229492,65.4101562 C395.221665,65.4101562 392.784677,64.3642683 390.918457,62.2724609 C389.052237,60.1806536 388.119141,57.4121266 388.119141,53.9667969 L388.119141,53.7001953 Z M391.933594,54.1513672 C391.933594,56.612317 392.504389,58.5878832 393.645996,60.078125 C394.787603,61.5683668 396.31542,62.3134766 398.229492,62.3134766 C400.157236,62.3134766 401.688471,61.558113 402.823242,60.0473633 C403.958013,58.5366135 404.525391,56.420912 404.525391,53.7001953 C404.525391,51.2665894 403.94776,49.2944411 402.79248,47.7836914 C401.637201,46.2729417 400.102549,45.5175781 398.188477,45.5175781 C396.31542,45.5175781 394.804693,46.2626879 393.65625,47.7529297 C392.507807,49.2431715 391.933594,51.3759627 391.933594,54.1513672 Z M436.394531,59.1142578 C436.394531,58.0888621 436.008305,57.2924833 435.23584,56.7250977 C434.463375,56.157712 433.116709,55.6689474 431.195801,55.2587891 C429.274893,54.8486308 427.750494,54.3564482 426.622559,53.7822266 C425.494623,53.2080049 424.660647,52.524418 424.120605,51.7314453 C423.580564,50.9384726 423.310547,49.9951227 423.310547,48.9013672 C423.310547,47.0829987 424.079582,45.5449282 425.617676,44.2871094 C427.155769,43.0292906 429.121082,42.4003906 431.513672,42.4003906 C434.029309,42.4003906 436.069816,43.0497982 437.635254,44.3486328 C439.200691,45.6474674 439.983398,47.3085836 439.983398,49.3320312 L436.168945,49.3320312 C436.168945,48.2929636 435.728032,47.3974647 434.846191,46.6455078 C433.964351,45.8935509 432.853522,45.5175781 431.513672,45.5175781 C430.132806,45.5175781 429.052738,45.8183564 428.273438,46.4199219 C427.494137,47.0214874 427.104492,47.8076123 427.104492,48.7783203 C427.104492,49.6943405 427.466793,50.3847633 428.191406,50.8496094 C428.916019,51.3144554 430.225088,51.7587869 432.118652,52.1826172 C434.012216,52.6064474 435.546869,53.1123017 436.722656,53.7001953 C437.898443,54.2880889 438.770017,54.9956013 439.337402,55.8227539 C439.904788,56.6499065 440.188477,57.6581972 440.188477,58.8476562 C440.188477,60.830088 439.395516,62.4194276 437.80957,63.6157227 C436.223625,64.8120177 434.166028,65.4101562 431.636719,65.4101562 C429.859366,65.4101562 428.287116,65.0957063 426.919922,64.4667969 C425.552728,63.8378875 424.482914,62.9594783 423.710449,61.831543 C422.937984,60.7036076 422.551758,59.483405 422.551758,58.1708984 L426.345703,58.1708984 C426.414063,59.4423892 426.923335,60.4506799 427.873535,61.1958008 C428.823735,61.9409217 430.078117,62.3134766 431.636719,62.3134766 C433.072273,62.3134766 434.224117,62.0229521 435.092285,61.4418945 C435.960454,60.8608369 436.394531,60.0849658 436.394531,59.1142578 Z M454.03125,62.3134766 C455.384772,62.3134766 456.567378,61.9033244 457.579102,61.0830078 C458.590825,60.2626912 459.151367,59.2373108 459.260742,58.0068359 L462.849609,58.0068359 C462.78125,59.2783267 462.343754,60.4882755 461.537109,61.6367188 C460.730465,62.785162 459.653815,63.7011685 458.307129,64.3847656 C456.960442,65.0683628 455.535164,65.4101562 454.03125,65.4101562 C451.009751,65.4101562 448.606943,64.4018656 446.822754,62.3852539 C445.038565,60.3686423 444.146484,57.6103691 444.146484,54.1103516 L444.146484,53.4746094 C444.146484,51.3144423 444.542965,49.3935631 445.335938,47.7119141 C446.12891,46.030265 447.267082,44.724614 448.750488,43.7949219 C450.233894,42.8652297 451.987295,42.4003906 454.010742,42.4003906 C456.499036,42.4003906 458.566886,43.1455004 460.214355,44.6357422 C461.861825,46.125984 462.740234,48.060535 462.849609,50.4394531 L459.260742,50.4394531 C459.151367,49.0038991 458.607915,47.8247116 457.630371,46.9018555 C456.652827,45.9789993 455.446296,45.5175781 454.010742,45.5175781 C452.082998,45.5175781 450.589361,46.2114188 449.529785,47.5991211 C448.47021,48.9868233 447.94043,50.9931509 447.94043,53.6181641 L447.94043,54.3359375 C447.94043,56.8925909 448.466792,58.8613212 449.519531,60.2421875 C450.572271,61.6230538 452.076162,62.3134766 454.03125,62.3134766 Z M470.90918,45.4970703 C472.590829,43.4326069 474.778307,42.4003906 477.47168,42.4003906 C482.161156,42.4003906 484.526367,45.045872 484.567383,50.3369141 L484.567383,65 L480.773438,65 L480.773438,50.3164062 C480.759766,48.7167889 480.394047,47.5341835 479.67627,46.7685547 C478.958493,46.0029259 477.840828,45.6201172 476.323242,45.6201172 C475.092767,45.6201172 474.0127,45.9482389 473.083008,46.6044922 C472.153316,47.2607455 471.428714,48.122065 470.90918,49.1884766 L470.90918,65 L467.115234,65 L467.115234,33.5 L470.90918,33.5 L470.90918,45.4970703 Z M499.456055,65.4101562 C496.448227,65.4101562 494.000986,64.4223732 492.114258,62.4467773 C490.22753,60.4711815 489.28418,57.8291181 489.28418,54.5205078 L489.28418,53.8232422 C489.28418,51.6220593 489.704586,49.6567469 490.54541,47.9272461 C491.386235,46.1977453 492.562004,44.8442432 494.072754,43.8666992 C495.583504,42.8891553 497.220694,42.4003906 498.984375,42.4003906 C501.869155,42.4003906 504.11132,43.3505764 505.710938,45.2509766 C507.310555,47.1513767 508.110352,49.8720526 508.110352,53.4130859 L508.110352,54.9921875 L493.078125,54.9921875 C493.132813,57.1796984 493.771967,58.9467706 494.995605,60.293457 C496.219244,61.6401435 497.774405,62.3134766 499.661133,62.3134766 C501.000983,62.3134766 502.135738,62.0400418 503.06543,61.4931641 C503.995122,60.9462863 504.80859,60.2216842 505.505859,59.3193359 L507.823242,61.1240234 C505.963858,63.9814596 503.174823,65.4101562 499.456055,65.4101562 Z M498.984375,45.5175781 C497.453117,45.5175781 496.167974,46.0747015 495.128906,47.1889648 C494.089839,48.3032282 493.447267,49.8652243 493.201172,51.875 L504.316406,51.875 L504.316406,51.5878906 C504.207031,49.6601466 503.687505,48.1665092 502.757812,47.1069336 C501.82812,46.047358 500.57032,45.5175781 498.984375,45.5175781 Z M516.067383,42.8105469 L516.169922,45.2714844 C517.796883,43.3574123 519.991197,42.4003906 522.75293,42.4003906 C525.856461,42.4003906 527.968744,43.5898319 529.089844,45.96875 C529.828129,44.9023384 530.788568,44.0410189 531.971191,43.3847656 C533.153815,42.7285123 534.55175,42.4003906 536.165039,42.4003906 C541.032251,42.4003906 543.506836,44.9775133 543.588867,50.1318359 L543.588867,65 L539.794922,65 L539.794922,50.3574219 C539.794922,48.7714764 539.432621,47.5854531 538.708008,46.7993164 C537.983395,46.0131797 536.76661,45.6201172 535.057617,45.6201172 C533.649407,45.6201172 532.480473,46.0405231 531.550781,46.8813477 C530.621089,47.7221722 530.081055,48.8535085 529.930664,50.2753906 L529.930664,65 L526.116211,65 L526.116211,50.4599609 C526.116211,47.2333823 524.537125,45.6201172 521.378906,45.6201172 C518.890613,45.6201172 517.188481,46.6796769 516.272461,48.7988281 L516.272461,65 L512.478516,65 L512.478516,42.8105469 L516.067383,42.8105469 Z M563.009766,65 C562.791015,64.5624978 562.613282,63.7832087 562.476562,62.6621094 C560.712882,64.4941498 558.607434,65.4101562 556.160156,65.4101562 C553.972645,65.4101562 552.17823,64.7915101 550.776855,63.5541992 C549.375481,62.3168883 548.674805,60.7480564 548.674805,58.8476562 C548.674805,56.5370978 549.553214,54.7426822 551.310059,53.4643555 C553.066903,52.1860288 555.53807,51.546875 558.723633,51.546875 L562.415039,51.546875 L562.415039,49.8037109 C562.415039,48.4775324 562.018559,47.4213906 561.225586,46.6352539 C560.432613,45.8491172 559.26368,45.4560547 557.71875,45.4560547 C556.365228,45.4560547 555.230473,45.7978481 554.314453,46.4814453 C553.398433,47.1650425 552.94043,47.9921826 552.94043,48.9628906 L549.125977,48.9628906 C549.125977,47.8554632 549.519039,46.7856497 550.305176,45.753418 C551.091313,44.7211862 552.157708,43.9042999 553.504395,43.3027344 C554.851081,42.7011689 556.331047,42.4003906 557.944336,42.4003906 C560.500989,42.4003906 562.503899,43.0395444 563.953125,44.3178711 C565.402351,45.5961978 566.154297,47.3564341 566.208984,49.5986328 L566.208984,59.8115234 C566.208984,61.848643 566.468747,63.468744 566.988281,64.671875 L566.988281,65 L563.009766,65 Z M556.713867,62.1083984 C557.903326,62.1083984 559.031245,61.8007843 560.097656,61.1855469 C561.164068,60.5703094 561.936521,59.7705127 562.415039,58.7861328 L562.415039,54.2333984 L559.441406,54.2333984 C554.792946,54.2333984 552.46875,55.5937364 552.46875,58.3144531 C552.46875,59.5039122 552.86523,60.4335904 553.658203,61.1035156 C554.451176,61.7734408 555.46972,62.1083984 556.713867,62.1083984 Z M581.651367,53.7207031 C581.651367,50.2617015 582.451164,47.5102641 584.050781,45.4663086 C585.650399,43.4223531 587.769518,42.4003906 590.408203,42.4003906 C593.115248,42.4003906 595.227531,43.3574123 596.745117,45.2714844 L596.929688,42.8105469 L600.395508,42.8105469 L600.395508,64.4667969 C600.395508,67.337905 599.544442,69.6005777 597.842285,71.2548828 C596.140128,72.909188 593.85353,73.7363281 590.982422,73.7363281 C589.382805,73.7363281 587.81739,73.3945347 586.286133,72.7109375 C584.754875,72.0273403 583.585942,71.0908263 582.779297,69.9013672 L584.748047,67.625 C586.375008,69.6347757 588.364246,70.6396484 590.71582,70.6396484 C592.561533,70.6396484 594.000483,70.1201224 595.032715,69.0810547 C596.064947,68.041987 596.581055,66.579111 596.581055,64.6923828 L596.581055,62.7851562 C595.063469,64.535165 592.992201,65.4101562 590.367188,65.4101562 C587.769518,65.4101562 585.667489,64.3642683 584.061035,62.2724609 C582.454582,60.1806536 581.651367,57.3300962 581.651367,53.7207031 Z M585.46582,54.1513672 C585.46582,56.6533328 585.97851,58.6186452 587.003906,60.0473633 C588.029302,61.4760814 589.464835,62.1904297 591.310547,62.1904297 C593.703137,62.1904297 595.459955,61.1035265 596.581055,58.9296875 L596.581055,48.7988281 C595.41894,46.6796769 593.675793,45.6201172 591.351562,45.6201172 C589.50585,45.6201172 588.063482,46.3378834 587.024414,47.7734375 C585.985346,49.2089916 585.46582,51.3349469 585.46582,54.1513672 Z M615.325195,65.4101562 C612.317368,65.4101562 609.870127,64.4223732 607.983398,62.4467773 C606.09667,60.4711815 605.15332,57.8291181 605.15332,54.5205078 L605.15332,53.8232422 C605.15332,51.6220593 605.573726,49.6567469 606.414551,47.9272461 C607.255375,46.1977453 608.431145,44.8442432 609.941895,43.8666992 C611.452644,42.8891553 613.089835,42.4003906 614.853516,42.4003906 C617.738296,42.4003906 619.980461,43.3505764 621.580078,45.2509766 C623.179695,47.1513767 623.979492,49.8720526 623.979492,53.4130859 L623.979492,54.9921875 L608.947266,54.9921875 C609.001953,57.1796984 609.641107,58.9467706 610.864746,60.293457 C612.088385,61.6401435 613.643545,62.3134766 615.530273,62.3134766 C616.870124,62.3134766 618.004878,62.0400418 618.93457,61.4931641 C619.864262,60.9462863 620.677731,60.2216842 621.375,59.3193359 L623.692383,61.1240234 C621.832999,63.9814596 619.043964,65.4101562 615.325195,65.4101562 Z M614.853516,45.5175781 C613.322258,45.5175781 612.037115,46.0747015 610.998047,47.1889648 C609.958979,48.3032282 609.316407,49.8652243 609.070312,51.875 L620.185547,51.875 L620.185547,51.5878906 C620.076171,49.6601466 619.556645,48.1665092 618.626953,47.1069336 C617.697261,46.047358 616.439461,45.5175781 614.853516,45.5175781 Z M631.957031,42.8105469 L632.080078,45.5996094 C633.775399,43.4667862 635.990221,42.4003906 638.724609,42.4003906 C643.414086,42.4003906 645.779297,45.045872 645.820312,50.3369141 L645.820312,65 L642.026367,65 L642.026367,50.3164062 C642.012695,48.7167889 641.646976,47.5341835 640.929199,46.7685547 C640.211422,46.0029259 639.093758,45.6201172 637.576172,45.6201172 C636.345697,45.6201172 635.26563,45.9482389 634.335938,46.6044922 C633.406245,47.2607455 632.681643,48.122065 632.162109,49.1884766 L632.162109,65 L628.368164,65 L628.368164,42.8105469 L631.957031,42.8105469 Z M660.75,65.4101562 C657.742172,65.4101562 655.294931,64.4223732 653.408203,62.4467773 C651.521475,60.4711815 650.578125,57.8291181 650.578125,54.5205078 L650.578125,53.8232422 C650.578125,51.6220593 650.998531,49.6567469 651.839355,47.9272461 C652.68018,46.1977453 653.855949,44.8442432 655.366699,43.8666992 C656.877449,42.8891553 658.51464,42.4003906 660.27832,42.4003906 C663.1631,42.4003906 665.405265,43.3505764 667.004883,45.2509766 C668.6045,47.1513767 669.404297,49.8720526 669.404297,53.4130859 L669.404297,54.9921875 L654.37207,54.9921875 C654.426758,57.1796984 655.065912,58.9467706 656.289551,60.293457 C657.51319,61.6401435 659.06835,62.3134766 660.955078,62.3134766 C662.294929,62.3134766 663.429683,62.0400418 664.359375,61.4931641 C665.289067,60.9462863 666.102536,60.2216842 666.799805,59.3193359 L669.117188,61.1240234 C667.257803,63.9814596 664.468769,65.4101562 660.75,65.4101562 Z M660.27832,45.5175781 C658.747063,45.5175781 657.461919,46.0747015 656.422852,47.1889648 C655.383784,48.3032282 654.741212,49.8652243 654.495117,51.875 L665.610352,51.875 L665.610352,51.5878906 C665.500976,49.6601466 664.98145,48.1665092 664.051758,47.1069336 C663.122066,46.047358 661.864266,45.5175781 660.27832,45.5175781 Z M684.518555,46.2148438 C683.944333,46.1191401 683.322269,46.0712891 682.652344,46.0712891 C680.16405,46.0712891 678.47559,47.1308488 677.586914,49.25 L677.586914,65 L673.792969,65 L673.792969,42.8105469 L677.484375,42.8105469 L677.545898,45.3740234 C678.790045,43.3915917 680.5537,42.4003906 682.836914,42.4003906 C683.575199,42.4003906 684.13574,42.4960928 684.518555,42.6875 L684.518555,46.2148438 Z M700.883789,65 C700.665038,64.5624978 700.487305,63.7832087 700.350586,62.6621094 C698.586905,64.4941498 696.481458,65.4101562 694.03418,65.4101562 C691.846669,65.4101562 690.052253,64.7915101 688.650879,63.5541992 C687.249505,62.3168883 686.548828,60.7480564 686.548828,58.8476562 C686.548828,56.5370978 687.427237,54.7426822 689.184082,53.4643555 C690.940927,52.1860288 693.412093,51.546875 696.597656,51.546875 L700.289062,51.546875 L700.289062,49.8037109 C700.289062,48.4775324 699.892582,47.4213906 699.099609,46.6352539 C698.306637,45.8491172 697.137703,45.4560547 695.592773,45.4560547 C694.239251,45.4560547 693.104497,45.7978481 692.188477,46.4814453 C691.272456,47.1650425 690.814453,47.9921826 690.814453,48.9628906 L687,48.9628906 C687,47.8554632 687.393062,46.7856497 688.179199,45.753418 C688.965336,44.7211862 690.031732,43.9042999 691.378418,43.3027344 C692.725104,42.7011689 694.20507,42.4003906 695.818359,42.4003906 C698.375013,42.4003906 700.377922,43.0395444 701.827148,44.3178711 C703.276374,45.5961978 704.02832,47.3564341 704.083008,49.5986328 L704.083008,59.8115234 C704.083008,61.848643 704.342771,63.468744 704.862305,64.671875 L704.862305,65 L700.883789,65 Z M694.587891,62.1083984 C695.77735,62.1083984 696.905268,61.8007843 697.97168,61.1855469 C699.038091,60.5703094 699.810544,59.7705127 700.289062,58.7861328 L700.289062,54.2333984 L697.31543,54.2333984 C692.666969,54.2333984 690.342773,55.5937364 690.342773,58.3144531 C690.342773,59.5039122 690.739254,60.4335904 691.532227,61.1035156 C692.325199,61.7734408 693.343744,62.1083984 694.587891,62.1083984 Z M715.177734,37.4375 L715.177734,42.8105469 L719.320312,42.8105469 L719.320312,45.7431641 L715.177734,45.7431641 L715.177734,59.5039062 C715.177734,60.3925826 715.362303,61.0590798 715.731445,61.503418 C716.100588,61.9477561 716.729488,62.1699219 717.618164,62.1699219 C718.055666,62.1699219 718.657223,62.0878914 719.422852,61.9238281 L719.422852,65 C718.4248,65.2734389 717.454106,65.4101562 716.510742,65.4101562 C714.815421,65.4101562 713.537114,64.8974661 712.675781,63.8720703 C711.814449,62.8466746 711.383789,61.3906344 711.383789,59.5039062 L711.383789,45.7431641 L707.34375,45.7431641 L707.34375,42.8105469 L711.383789,42.8105469 L711.383789,37.4375 L715.177734,37.4375 Z M722.334961,53.7001953 C722.334961,51.5263563 722.762203,49.5712977 723.616699,47.8349609 C724.471196,46.0986241 725.660637,44.7587938 727.185059,43.8154297 C728.70948,42.8720656 730.449209,42.4003906 732.404297,42.4003906 C735.425796,42.4003906 737.86962,43.4462786 739.73584,45.5380859 C741.60206,47.6298933 742.535156,50.412092 742.535156,53.8847656 L742.535156,54.1513672 C742.535156,56.3115342 742.121586,58.2495031 741.294434,59.965332 C740.467281,61.6811609 739.284676,63.0175733 737.746582,63.9746094 C736.208488,64.9316454 734.441416,65.4101562 732.445312,65.4101562 C729.437485,65.4101562 727.000498,64.3642683 725.134277,62.2724609 C723.268057,60.1806536 722.334961,57.4121266 722.334961,53.9667969 L722.334961,53.7001953 Z M726.149414,54.1513672 C726.149414,56.612317 726.720209,58.5878832 727.861816,60.078125 C729.003424,61.5683668 730.53124,62.3134766 732.445312,62.3134766 C734.373057,62.3134766 735.904291,61.558113 737.039062,60.0473633 C738.173834,58.5366135 738.741211,56.420912 738.741211,53.7001953 C738.741211,51.2665894 738.16358,49.2944411 737.008301,47.7836914 C735.853022,46.2729417 734.318369,45.5175781 732.404297,45.5175781 C730.531241,45.5175781 729.020514,46.2626879 727.87207,47.7529297 C726.723627,49.2431715 726.149414,51.3759627 726.149414,54.1513672 Z M758.018555,46.2148438 C757.444333,46.1191401 756.822269,46.0712891 756.152344,46.0712891 C753.66405,46.0712891 751.97559,47.1308488 751.086914,49.25 L751.086914,65 L747.292969,65 L747.292969,42.8105469 L750.984375,42.8105469 L751.045898,45.3740234 C752.290045,43.3915917 754.0537,42.4003906 756.336914,42.4003906 C757.075199,42.4003906 757.63574,42.4960928 758.018555,42.6875 L758.018555,46.2148438 Z" id="Text-{size:xxxxl,-family:sans-serif,-spacing:none,-tag:div}" fill="#111111"></path>
                <path d="M26.2539062,38.03125 L35.75,64.84375 L45.1953125,38.03125 L55.1992187,38.03125 L55.1992187,75 L47.5566406,75 L47.5566406,64.8945312 L48.3183594,47.4511719 L38.3398438,75 L33.109375,75 L23.15625,47.4765625 L23.9179688,64.8945312 L23.9179688,75 L16.3007812,75 L16.3007812,38.03125 L26.2539062,38.03125 Z M77.2890625,75 C76.9505191,74.3398404 76.7050789,73.5188851 76.5527344,72.5371094 C74.7753817,74.517588 72.464858,75.5078125 69.6210938,75.5078125 C66.929674,75.5078125 64.6995531,74.7291745 62.9306641,73.171875 C61.161775,71.6145755 60.2773438,69.6510535 60.2773438,67.28125 C60.2773438,64.3697771 61.3564345,62.1354245 63.5146484,60.578125 C65.6728624,59.0208255 68.7916463,58.233724 72.8710938,58.2167969 L76.2480469,58.2167969 L76.2480469,56.6425781 C76.2480469,55.3730405 75.9222038,54.3574257 75.2705078,53.5957031 C74.6188118,52.8339806 73.5905018,52.453125 72.1855469,52.453125 C70.9498636,52.453125 69.9807978,52.749346 69.2783203,53.3417969 C68.5758428,53.9342478 68.2246094,54.7467396 68.2246094,55.7792969 L60.8867188,55.7792969 C60.8867188,54.1881431 61.3775993,52.7155016 62.359375,51.3613281 C63.3411507,50.0071547 64.7291577,48.9449908 66.5234375,48.1748047 C68.3177173,47.4046185 70.3320201,47.0195312 72.5664062,47.0195312 C75.9518398,47.0195312 78.6389875,47.8701087 80.6279297,49.5712891 C82.6168719,51.2724694 83.6113281,53.6633961 83.6113281,56.7441406 L83.6113281,68.6523438 C83.6282553,71.2591276 83.9921839,73.2311131 84.703125,74.5683594 L84.703125,75 L77.2890625,75 Z M71.2207031,69.8964844 C72.3040419,69.8964844 73.3027298,69.6552758 74.2167969,69.1728516 C75.1308639,68.6904273 75.8079405,68.0429728 76.2480469,67.2304688 L76.2480469,62.5078125 L73.5058594,62.5078125 C69.8326639,62.5078125 67.8776054,63.7773311 67.640625,66.3164062 L67.6152344,66.7480469 C67.6152344,67.6621139 67.9368457,68.4153616 68.5800781,69.0078125 C69.2233105,69.6002634 70.10351,69.8964844 71.2207031,69.8964844 Z" id="Text-{size:xxxxl,-family:sans-serif,-spacing:none,-tag:div}" fill="#FFFFFF"></path>
                <path d="M73.6953125,27 L72.2421875,27 L72.2421875,17.3671875 L69.328125,18.4375 L69.328125,17.125 L73.46875,15.5703125 L73.6953125,15.5703125 L73.6953125,27 Z M84.03125,23.1796875 L85.609375,23.1796875 L85.609375,24.359375 L84.03125,24.359375 L84.03125,27 L82.578125,27 L82.578125,24.359375 L77.3984375,24.359375 L77.3984375,23.5078125 L82.4921875,15.625 L84.03125,15.625 L84.03125,23.1796875 Z M79.0390625,23.1796875 L82.578125,23.1796875 L82.578125,17.6015625 L82.40625,17.9140625 L79.0390625,23.1796875 Z" id="Text-{size:xxxxl,-family:sans-serif,-spacing:none,-tag:div}" fill="#FFFFFF"></path>
            </g>
        </g>
    </g>
</svg>