<?xml version="1.0" encoding="UTF-8"?>
<svg width="888px" height="130px" viewBox="0 0 888 130" version="1.1" xmlns="http://www.w3.org/2000/svg">
    <title>Open Source Blueprint_Ma Logo@2x</title>
    <defs>
        <linearGradient x1="13.2263485%" y1="13.0966785%" x2="100.024032%" y2="99.0434052%" id="linearGradient-1">
            <stop stop-color="#FFA200" offset="0%"/>
            <stop stop-color="#FFFFFF" stop-opacity="0" offset="100%"/>
        </linearGradient>
    </defs>
    <g id="HACK-17-DS_Open-Source-Blueprint_Logo_B" stroke="none" stroke-width="1" fill="none" fill-rule="evenodd">
        <g id="Open-Source-Blueprint_Ma-Logo">
            <g id="Group-2" transform="translate(59.000000, 15.000000)">
                <g id="Group">
                    <rect id="Rectangle" fill="#FFC14D" x="0" y="0" width="100" height="100" rx="12"/>
                    <rect id="Rectangle" fill="url(#linearGradient-1)" style="mix-blend-mode: multiply;"
                          transform="translate(50.000000, 50.000000) rotate(-180.000000) translate(-50.000000, -50.000000) " x="0" y="0"
                          width="100" height="100" rx="12"/>
                </g>
                <path d="M26.2539062,38.03125 L35.75,64.84375 L45.1953125,38.03125 L55.1992187,38.03125 L55.1992187,75 L47.5566406,75 L47.5566406,64.8945312 L48.3183594,47.4511719 L38.3398438,75 L33.109375,75 L23.15625,47.4765625 L23.9179688,64.8945312 L23.9179688,75 L16.3007812,75 L16.3007812,38.03125 L26.2539062,38.03125 Z M77.2890625,75 C76.9505191,74.3398404 76.7050789,73.5188851 76.5527344,72.5371094 C74.7753817,74.517588 72.464858,75.5078125 69.6210938,75.5078125 C66.929674,75.5078125 64.6995531,74.7291745 62.9306641,73.171875 C61.161775,71.6145755 60.2773438,69.6510535 60.2773438,67.28125 C60.2773438,64.3697771 61.3564345,62.1354245 63.5146484,60.578125 C65.6728624,59.0208255 68.7916463,58.233724 72.8710938,58.2167969 L76.2480469,58.2167969 L76.2480469,56.6425781 C76.2480469,55.3730405 75.9222038,54.3574257 75.2705078,53.5957031 C74.6188118,52.8339806 73.5905018,52.453125 72.1855469,52.453125 C70.9498636,52.453125 69.9807978,52.749346 69.2783203,53.3417969 C68.5758428,53.9342478 68.2246094,54.7467396 68.2246094,55.7792969 L60.8867188,55.7792969 C60.8867188,54.1881431 61.3775993,52.7155016 62.359375,51.3613281 C63.3411507,50.0071547 64.7291577,48.9449908 66.5234375,48.1748047 C68.3177173,47.4046185 70.3320201,47.0195312 72.5664062,47.0195312 C75.9518398,47.0195312 78.6389875,47.8701087 80.6279297,49.5712891 C82.6168719,51.2724694 83.6113281,53.6633961 83.6113281,56.7441406 L83.6113281,68.6523438 C83.6282553,71.2591276 83.9921839,73.2311131 84.703125,74.5683594 L84.703125,75 L77.2890625,75 Z M71.2207031,69.8964844 C72.3040419,69.8964844 73.3027298,69.6552758 74.2167969,69.1728516 C75.1308639,68.6904273 75.8079405,68.0429728 76.2480469,67.2304688 L76.2480469,62.5078125 L73.5058594,62.5078125 C69.8326639,62.5078125 67.8776054,63.7773311 67.640625,66.3164062 L67.6152344,66.7480469 C67.6152344,67.6621139 67.9368457,68.4153616 68.5800781,69.0078125 C69.2233105,69.6002634 70.10351,69.8964844 71.2207031,69.8964844 Z"
                      id="Text-{size:xxxxl,-family:sans-serif,-spacing:none,-tag:div}" fill="#FFFFFF"/>
                <path d="M73.6953125,27 L72.2421875,27 L72.2421875,17.3671875 L69.328125,18.4375 L69.328125,17.125 L73.46875,15.5703125 L73.6953125,15.5703125 L73.6953125,27 Z M84.03125,23.1796875 L85.609375,23.1796875 L85.609375,24.359375 L84.03125,24.359375 L84.03125,27 L82.578125,27 L82.578125,24.359375 L77.3984375,24.359375 L77.3984375,23.5078125 L82.4921875,15.625 L84.03125,15.625 L84.03125,23.1796875 Z M79.0390625,23.1796875 L82.578125,23.1796875 L82.578125,17.6015625 L82.40625,17.9140625 L79.0390625,23.1796875 Z"
                      id="Text-{size:xxxxl,-family:sans-serif,-spacing:none,-tag:div}" fill="#FFFFFF"/>
                <path d="M128.085938,35.640625 L137.847656,60.0039062 L147.609375,35.640625 L152.71582,35.640625 L152.71582,65.5 L148.77832,65.5 L148.77832,53.8720703 L149.147461,41.3212891 L139.344727,65.5 L136.330078,65.5 L126.547852,41.3828125 L126.9375,53.8720703 L126.9375,65.5 L123,65.5 L123,35.640625 L128.085938,35.640625 Z M158.068359,54.2001953 C158.068359,52.0263563 158.495601,50.0712977 159.350098,48.3349609 C160.204594,46.5986241 161.394035,45.2587938 162.918457,44.3154297 C164.442879,43.3720656 166.182607,42.9003906 168.137695,42.9003906 C171.159195,42.9003906 173.603018,43.9462786 175.469238,46.0380859 C177.335459,48.1298933 178.268555,50.912092 178.268555,54.3847656 L178.268555,54.6513672 C178.268555,56.8115342 177.854985,58.7495031 177.027832,60.465332 C176.200679,62.1811609 175.018074,63.5175733 173.47998,64.4746094 C171.941887,65.4316454 170.174815,65.9101562 168.178711,65.9101562 C165.170883,65.9101562 162.733896,64.8642683 160.867676,62.7724609 C159.001456,60.6806536 158.068359,57.9121266 158.068359,54.4667969 L158.068359,54.2001953 Z M161.882812,54.6513672 C161.882812,57.112317 162.453608,59.0878832 163.595215,60.578125 C164.736822,62.0683668 166.264639,62.8134766 168.178711,62.8134766 C170.106455,62.8134766 171.63769,62.058113 172.772461,60.5473633 C173.907232,59.0366135 174.474609,56.920912 174.474609,54.2001953 C174.474609,51.7665894 173.896978,49.7944411 172.741699,48.2836914 C171.58642,46.7729417 170.051767,46.0175781 168.137695,46.0175781 C166.264639,46.0175781 164.753912,46.7626879 163.605469,48.2529297 C162.457026,49.7431715 161.882812,51.8759627 161.882812,54.6513672 Z M186.615234,43.3105469 L186.738281,46.0996094 C188.433602,43.9667862 190.648424,42.9003906 193.382812,42.9003906 C198.072289,42.9003906 200.4375,45.545872 200.478516,50.8369141 L200.478516,65.5 L196.68457,65.5 L196.68457,50.8164062 C196.670898,49.2167889 196.305179,48.0341835 195.587402,47.2685547 C194.869625,46.5029259 193.751961,46.1201172 192.234375,46.1201172 C191.0039,46.1201172 189.923833,46.4482389 188.994141,47.1044922 C188.064448,47.7607455 187.339846,48.622065 186.820312,49.6884766 L186.820312,65.5 L183.026367,65.5 L183.026367,43.3105469 L186.615234,43.3105469 Z M205.297852,54.2207031 C205.297852,50.7617015 206.097648,48.0102641 207.697266,45.9663086 C209.296883,43.9223531 211.416002,42.9003906 214.054688,42.9003906 C216.761732,42.9003906 218.874016,43.8574123 220.391602,45.7714844 L220.576172,43.3105469 L224.041992,43.3105469 L224.041992,64.9667969 C224.041992,67.837905 223.190926,70.1005777 221.48877,71.7548828 C219.786613,73.409188 217.500014,74.2363281 214.628906,74.2363281 C213.029289,74.2363281 211.463875,73.8945347 209.932617,73.2109375 C208.40136,72.5273403 207.232426,71.5908263 206.425781,70.4013672 L208.394531,68.125 C210.021493,70.1347757 212.01073,71.1396484 214.362305,71.1396484 C216.208017,71.1396484 217.646967,70.6201224 218.679199,69.5810547 C219.711431,68.541987 220.227539,67.079111 220.227539,65.1923828 L220.227539,63.2851562 C218.709953,65.035165 216.638685,65.9101562 214.013672,65.9101562 C211.416003,65.9101562 209.313973,64.8642683 207.70752,62.7724609 C206.101066,60.6806536 205.297852,57.8300962 205.297852,54.2207031 Z M209.112305,54.6513672 C209.112305,57.1533328 209.624995,59.1186452 210.650391,60.5473633 C211.675786,61.9760814 213.111319,62.6904297 214.957031,62.6904297 C217.349621,62.6904297 219.10644,61.6035265 220.227539,59.4296875 L220.227539,49.2988281 C219.065424,47.1796769 217.322277,46.1201172 214.998047,46.1201172 C213.152335,46.1201172 211.709966,46.8378834 210.670898,48.2734375 C209.631831,49.7089916 209.112305,51.8349469 209.112305,54.6513672 Z M228.758789,54.2001953 C228.758789,52.0263563 229.186031,50.0712977 230.040527,48.3349609 C230.895024,46.5986241 232.084465,45.2587938 233.608887,44.3154297 C235.133308,43.3720656 236.873037,42.9003906 238.828125,42.9003906 C241.849624,42.9003906 244.293448,43.9462786 246.159668,46.0380859 C248.025888,48.1298933 248.958984,50.912092 248.958984,54.3847656 L248.958984,54.6513672 C248.958984,56.8115342 248.545414,58.7495031 247.718262,60.465332 C246.891109,62.1811609 245.708504,63.5175733 244.17041,64.4746094 C242.632317,65.4316454 240.865244,65.9101562 238.869141,65.9101562 C235.861313,65.9101562 233.424326,64.8642683 231.558105,62.7724609 C229.691885,60.6806536 228.758789,57.9121266 228.758789,54.4667969 L228.758789,54.2001953 Z M232.573242,54.6513672 C232.573242,57.112317 233.144037,59.0878832 234.285645,60.578125 C235.427252,62.0683668 236.955069,62.8134766 238.869141,62.8134766 C240.796885,62.8134766 242.328119,62.058113 243.462891,60.5473633 C244.597662,59.0366135 245.165039,56.920912 245.165039,54.2001953 C245.165039,51.7665894 244.587408,49.7944411 243.432129,48.2836914 C242.27685,46.7729417 240.742197,46.0175781 238.828125,46.0175781 C236.955069,46.0175781 235.444342,46.7626879 234.295898,48.2529297 C233.147455,49.7431715 232.573242,51.8759627 232.573242,54.6513672 Z M252.711914,54.2001953 C252.711914,52.0263563 253.139156,50.0712977 253.993652,48.3349609 C254.848149,46.5986241 256.03759,45.2587938 257.562012,44.3154297 C259.086433,43.3720656 260.826162,42.9003906 262.78125,42.9003906 C265.802749,42.9003906 268.246573,43.9462786 270.112793,46.0380859 C271.979013,48.1298933 272.912109,50.912092 272.912109,54.3847656 L272.912109,54.6513672 C272.912109,56.8115342 272.498539,58.7495031 271.671387,60.465332 C270.844234,62.1811609 269.661629,63.5175733 268.123535,64.4746094 C266.585442,65.4316454 264.818369,65.9101562 262.822266,65.9101562 C259.814438,65.9101562 257.377451,64.8642683 255.51123,62.7724609 C253.64501,60.6806536 252.711914,57.9121266 252.711914,54.4667969 L252.711914,54.2001953 Z M256.526367,54.6513672 C256.526367,57.112317 257.097162,59.0878832 258.23877,60.578125 C259.380377,62.0683668 260.908194,62.8134766 262.822266,62.8134766 C264.75001,62.8134766 266.281244,62.058113 267.416016,60.5473633 C268.550787,59.0366135 269.118164,56.920912 269.118164,54.2001953 C269.118164,51.7665894 268.540533,49.7944411 267.385254,48.2836914 C266.229975,46.7729417 264.695322,46.0175781 262.78125,46.0175781 C260.908194,46.0175781 259.397467,46.7626879 258.249023,48.2529297 C257.10058,49.7431715 256.526367,51.8759627 256.526367,54.6513672 Z M290.589844,59.6142578 C290.589844,58.5888621 290.203617,57.7924833 289.431152,57.2250977 C288.658688,56.657712 287.312021,56.1689474 285.391113,55.7587891 C283.470205,55.3486308 281.945806,54.8564482 280.817871,54.2822266 C279.689936,53.7080049 278.85596,53.024418 278.315918,52.2314453 C277.775876,51.4384726 277.505859,50.4951227 277.505859,49.4013672 C277.505859,47.5829987 278.274895,46.0449282 279.812988,44.7871094 C281.351082,43.5292906 283.316394,42.9003906 285.708984,42.9003906 C288.224622,42.9003906 290.265129,43.5497982 291.830566,44.8486328 C293.396004,46.1474674 294.178711,47.8085836 294.178711,49.8320312 L290.364258,49.8320312 C290.364258,48.7929636 289.923344,47.8974647 289.041504,47.1455078 C288.159664,46.3935509 287.048835,46.0175781 285.708984,46.0175781 C284.328118,46.0175781 283.248051,46.3183564 282.46875,46.9199219 C281.689449,47.5214874 281.299805,48.3076123 281.299805,49.2783203 C281.299805,50.1943405 281.662106,50.8847633 282.386719,51.3496094 C283.111332,51.8144554 284.420401,52.2587869 286.313965,52.6826172 C288.207529,53.1064474 289.742182,53.6123017 290.917969,54.2001953 C292.093756,54.7880889 292.965329,55.4956013 293.532715,56.3227539 C294.1001,57.1499065 294.383789,58.1581972 294.383789,59.3476562 C294.383789,61.330088 293.590828,62.9194276 292.004883,64.1157227 C290.418937,65.3120177 288.361341,65.9101562 285.832031,65.9101562 C284.054679,65.9101562 282.482429,65.5957063 281.115234,64.9667969 C279.74804,64.3378875 278.678227,63.4594783 277.905762,62.331543 C277.133297,61.2036076 276.74707,59.983405 276.74707,58.6708984 L280.541016,58.6708984 C280.609375,59.9423892 281.118648,60.9506799 282.068848,61.6958008 C283.019048,62.4409217 284.27343,62.8134766 285.832031,62.8134766 C287.267585,62.8134766 288.419429,62.5229521 289.287598,61.9418945 C290.155766,61.3608369 290.589844,60.5849658 290.589844,59.6142578 Z M308.53418,65.9101562 C305.526352,65.9101562 303.079111,64.9223732 301.192383,62.9467773 C299.305655,60.9711815 298.362305,58.3291181 298.362305,55.0205078 L298.362305,54.3232422 C298.362305,52.1220593 298.782711,50.1567469 299.623535,48.4272461 C300.46436,46.6977453 301.640129,45.3442432 303.150879,44.3666992 C304.661629,43.3891553 306.298819,42.9003906 308.0625,42.9003906 C310.94728,42.9003906 313.189445,43.8505764 314.789062,45.7509766 C316.38868,47.6513767 317.188477,50.3720526 317.188477,53.9130859 L317.188477,55.4921875 L302.15625,55.4921875 C302.210938,57.6796984 302.850092,59.4467706 304.07373,60.793457 C305.297369,62.1401435 306.85253,62.8134766 308.739258,62.8134766 C310.079108,62.8134766 311.213863,62.5400418 312.143555,61.9931641 C313.073247,61.4462863 313.886715,60.7216842 314.583984,59.8193359 L316.901367,61.6240234 C315.041983,64.4814596 312.252948,65.9101562 308.53418,65.9101562 Z M308.0625,46.0175781 C306.531242,46.0175781 305.246099,46.5747015 304.207031,47.6889648 C303.167964,48.8032282 302.525392,50.3652243 302.279297,52.375 L313.394531,52.375 L313.394531,52.0878906 C313.285156,50.1601466 312.76563,48.6665092 311.835938,47.6069336 C310.906245,46.547358 309.648445,46.0175781 308.0625,46.0175781 Z M349.057617,57.7070312 L336.547852,57.7070312 L333.738281,65.5 L329.677734,65.5 L341.080078,35.640625 L344.525391,35.640625 L355.948242,65.5 L351.908203,65.5 L349.057617,57.7070312 Z M337.737305,54.4667969 L347.888672,54.4667969 L342.802734,40.5009766 L337.737305,54.4667969 Z M365.668945,60.3525391 L371.165039,43.3105469 L375.041016,43.3105469 L367.083984,65.5 L364.192383,65.5 L356.15332,43.3105469 L360.029297,43.3105469 L365.668945,60.3525391 Z M389.416992,46.7148438 C388.842771,46.6191401 388.220706,46.5712891 387.550781,46.5712891 C385.062488,46.5712891 383.374028,47.6308488 382.485352,49.75 L382.485352,65.5 L378.691406,65.5 L378.691406,43.3105469 L382.382812,43.3105469 L382.444336,45.8740234 C383.688483,43.8915917 385.452137,42.9003906 387.735352,42.9003906 C388.473637,42.9003906 389.034178,42.9960928 389.416992,43.1875 L389.416992,46.7148438 Z M391.488281,54.2001953 C391.488281,52.0263563 391.915523,50.0712977 392.77002,48.3349609 C393.624516,46.5986241 394.813957,45.2587938 396.338379,44.3154297 C397.862801,43.3720656 399.602529,42.9003906 401.557617,42.9003906 C404.579117,42.9003906 407.02294,43.9462786 408.88916,46.0380859 C410.75538,48.1298933 411.688477,50.912092 411.688477,54.3847656 L411.688477,54.6513672 C411.688477,56.8115342 411.274906,58.7495031 410.447754,60.465332 C409.620601,62.1811609 408.437996,63.5175733 406.899902,64.4746094 C405.361809,65.4316454 403.594737,65.9101562 401.598633,65.9101562 C398.590805,65.9101562 396.153818,64.8642683 394.287598,62.7724609 C392.421377,60.6806536 391.488281,57.9121266 391.488281,54.4667969 L391.488281,54.2001953 Z M395.302734,54.6513672 C395.302734,57.112317 395.873529,59.0878832 397.015137,60.578125 C398.156744,62.0683668 399.684561,62.8134766 401.598633,62.8134766 C403.526377,62.8134766 405.057612,62.058113 406.192383,60.5473633 C407.327154,59.0366135 407.894531,56.920912 407.894531,54.2001953 C407.894531,51.7665894 407.3169,49.7944411 406.161621,48.2836914 C405.006342,46.7729417 403.471689,46.0175781 401.557617,46.0175781 C399.684561,46.0175781 398.173834,46.7626879 397.025391,48.2529297 C395.876947,49.7431715 395.302734,51.8759627 395.302734,54.6513672 Z M436.236328,52.1904297 C432.859358,51.2197217 430.401863,50.0268625 428.86377,48.6118164 C427.325676,47.1967703 426.556641,45.4502057 426.556641,43.3720703 C426.556641,41.0204961 427.496573,39.0756913 429.376465,37.5375977 C431.256357,35.999504 433.70018,35.2304688 436.708008,35.2304688 C438.758799,35.2304688 440.587394,35.6269492 442.193848,36.4199219 C443.800301,37.2128946 445.044429,38.3066337 445.92627,39.7011719 C446.80811,41.0957101 447.249023,42.6201089 447.249023,44.2744141 L443.291016,44.2744141 C443.291016,42.4697175 442.716803,41.0512747 441.568359,40.019043 C440.419916,38.9868112 438.799815,38.4707031 436.708008,38.4707031 C434.766592,38.4707031 433.252447,38.8979449 432.165527,39.7524414 C431.078608,40.6069379 430.535156,41.7929612 430.535156,43.3105469 C430.535156,44.5273498 431.051264,45.5561481 432.083496,46.3969727 C433.115728,47.2377972 434.872546,48.0068325 437.354004,48.7041016 C439.835462,49.4013707 441.776848,50.170406 443.178223,51.0112305 C444.579597,51.852055 445.618649,52.8330022 446.29541,53.9541016 C446.972171,55.0752009 447.310547,56.3945237 447.310547,57.9121094 C447.310547,60.3320433 446.367197,62.2700123 444.480469,63.7260742 C442.593741,65.1821362 440.071305,65.9101562 436.913086,65.9101562 C434.862294,65.9101562 432.948251,65.5170938 431.170898,64.730957 C429.393546,63.9448203 428.022954,62.8681709 427.059082,61.5009766 C426.09521,60.1337822 425.613281,58.5820399 425.613281,56.8457031 L429.571289,56.8457031 C429.571289,58.6503996 430.237786,60.0756784 431.570801,61.121582 C432.903815,62.1674857 434.684559,62.6904297 436.913086,62.6904297 C438.991221,62.6904297 440.583979,62.2666058 441.691406,61.4189453 C442.798834,60.5712848 443.352539,59.4160229 443.352539,57.953125 C443.352539,56.4902271 442.839849,55.3588907 441.814453,54.559082 C440.789057,53.7592733 438.929701,52.9697305 436.236328,52.1904297 Z M460.661133,62.8134766 C462.014655,62.8134766 463.197261,62.4033244 464.208984,61.5830078 C465.220708,60.7626912 465.781249,59.7373108 465.890625,58.5068359 L469.479492,58.5068359 C469.411132,59.7783267 468.973637,60.9882755 468.166992,62.1367188 C467.360348,63.285162 466.283698,64.2011685 464.937012,64.8847656 C463.590325,65.5683628 462.165047,65.9101562 460.661133,65.9101562 C457.639633,65.9101562 455.236825,64.9018656 453.452637,62.8852539 C451.668448,60.8686423 450.776367,58.1103691 450.776367,54.6103516 L450.776367,53.9746094 C450.776367,51.8144423 451.172848,49.8935631 451.96582,48.2119141 C452.758793,46.530265 453.896965,45.224614 455.380371,44.2949219 C456.863777,43.3652297 458.617177,42.9003906 460.640625,42.9003906 C463.128919,42.9003906 465.196769,43.6455004 466.844238,45.1357422 C468.491707,46.625984 469.370117,48.560535 469.479492,50.9394531 L465.890625,50.9394531 C465.781249,49.5038991 465.237798,48.3247116 464.260254,47.4018555 C463.28271,46.4789993 462.076179,46.0175781 460.640625,46.0175781 C458.712881,46.0175781 457.219244,46.7114188 456.159668,48.0991211 C455.100092,49.4868233 454.570312,51.4931509 454.570312,54.1181641 L454.570312,54.8359375 C454.570312,57.3925909 455.096674,59.3613212 456.149414,60.7421875 C457.202154,62.1230538 458.706045,62.8134766 460.661133,62.8134766 Z M477.539062,45.9970703 C479.220712,43.9326069 481.40819,42.9003906 484.101562,42.9003906 C488.791039,42.9003906 491.15625,45.545872 491.197266,50.8369141 L491.197266,65.5 L487.40332,65.5 L487.40332,50.8164062 C487.389648,49.2167889 487.023929,48.0341835 486.306152,47.2685547 C485.588375,46.5029259 484.470711,46.1201172 482.953125,46.1201172 C481.72265,46.1201172 480.642583,46.4482389 479.712891,47.1044922 C478.783198,47.7607455 478.058596,48.622065 477.539062,49.6884766 L477.539062,65.5 L473.745117,65.5 L473.745117,34 L477.539062,34 L477.539062,45.9970703 Z M506.085938,65.9101562 C503.07811,65.9101562 500.630869,64.9223732 498.744141,62.9467773 C496.857412,60.9711815 495.914062,58.3291181 495.914062,55.0205078 L495.914062,54.3232422 C495.914062,52.1220593 496.334468,50.1567469 497.175293,48.4272461 C498.016117,46.6977453 499.191887,45.3442432 500.702637,44.3666992 C502.213386,43.3891553 503.850577,42.9003906 505.614258,42.9003906 C508.499038,42.9003906 510.741203,43.8505764 512.34082,45.7509766 C513.940438,47.6513767 514.740234,50.3720526 514.740234,53.9130859 L514.740234,55.4921875 L499.708008,55.4921875 C499.762696,57.6796984 500.401849,59.4467706 501.625488,60.793457 C502.849127,62.1401435 504.404287,62.8134766 506.291016,62.8134766 C507.630866,62.8134766 508.76562,62.5400418 509.695312,61.9931641 C510.625005,61.4462863 511.438473,60.7216842 512.135742,59.8193359 L514.453125,61.6240234 C512.593741,64.4814596 509.804706,65.9101562 506.085938,65.9101562 Z M505.614258,46.0175781 C504.083,46.0175781 502.797857,46.5747015 501.758789,47.6889648 C500.719721,48.8032282 500.07715,50.3652243 499.831055,52.375 L510.946289,52.375 L510.946289,52.0878906 C510.836914,50.1601466 510.317387,48.6665092 509.387695,47.6069336 C508.458003,46.547358 507.200203,46.0175781 505.614258,46.0175781 Z M522.697266,43.3105469 L522.799805,45.7714844 C524.426766,43.8574123 526.62108,42.9003906 529.382812,42.9003906 C532.486344,42.9003906 534.598627,44.0898319 535.719727,46.46875 C536.458012,45.4023384 537.418451,44.5410189 538.601074,43.8847656 C539.783697,43.2285123 541.181633,42.9003906 542.794922,42.9003906 C547.662134,42.9003906 550.136718,45.4775133 550.21875,50.6318359 L550.21875,65.5 L546.424805,65.5 L546.424805,50.8574219 C546.424805,49.2714764 546.062504,48.0854531 545.337891,47.2993164 C544.613278,46.5131797 543.396493,46.1201172 541.6875,46.1201172 C540.27929,46.1201172 539.110356,46.5405231 538.180664,47.3813477 C537.250972,48.2221722 536.710938,49.3535085 536.560547,50.7753906 L536.560547,65.5 L532.746094,65.5 L532.746094,50.9599609 C532.746094,47.7333823 531.167008,46.1201172 528.008789,46.1201172 C525.520495,46.1201172 523.818364,47.1796769 522.902344,49.2988281 L522.902344,65.5 L519.108398,65.5 L519.108398,43.3105469 L522.697266,43.3105469 Z M569.639648,65.5 C569.420897,65.0624978 569.243165,64.2832087 569.106445,63.1621094 C567.342765,64.9941498 565.237317,65.9101562 562.790039,65.9101562 C560.602528,65.9101562 558.808112,65.2915101 557.406738,64.0541992 C556.005364,62.8168883 555.304688,61.2480564 555.304688,59.3476562 C555.304688,57.0370978 556.183097,55.2426822 557.939941,53.9643555 C559.696786,52.6860288 562.167953,52.046875 565.353516,52.046875 L569.044922,52.046875 L569.044922,50.3037109 C569.044922,48.9775324 568.648441,47.9213906 567.855469,47.1352539 C567.062496,46.3491172 565.893562,45.9560547 564.348633,45.9560547 C562.99511,45.9560547 561.860356,46.2978481 560.944336,46.9814453 C560.028316,47.6650425 559.570312,48.4921826 559.570312,49.4628906 L555.755859,49.4628906 C555.755859,48.3554632 556.148922,47.2856497 556.935059,46.253418 C557.721195,45.2211862 558.787591,44.4042999 560.134277,43.8027344 C561.480964,43.2011689 562.960929,42.9003906 564.574219,42.9003906 C567.130872,42.9003906 569.133782,43.5395444 570.583008,44.8178711 C572.032234,46.0961978 572.784179,47.8564341 572.838867,50.0986328 L572.838867,60.3115234 C572.838867,62.348643 573.09863,63.968744 573.618164,65.171875 L573.618164,65.5 L569.639648,65.5 Z M563.34375,62.6083984 C564.533209,62.6083984 565.661127,62.3007843 566.727539,61.6855469 C567.793951,61.0703094 568.566404,60.2705127 569.044922,59.2861328 L569.044922,54.7333984 L566.071289,54.7333984 C561.422828,54.7333984 559.098633,56.0937364 559.098633,58.8144531 C559.098633,60.0039122 559.495113,60.9335904 560.288086,61.6035156 C561.081059,62.2734408 562.099603,62.6083984 563.34375,62.6083984 Z M611.824219,61.5830078 C610.812495,63.0322338 609.400888,64.1157191 607.589355,64.8334961 C605.777823,65.5512731 603.668957,65.9101562 601.262695,65.9101562 C598.829089,65.9101562 596.668955,65.3393612 594.782227,64.1977539 C592.895498,63.0561466 591.43604,61.4326277 590.403809,59.3271484 C589.371577,57.2216692 588.841797,54.7812639 588.814453,52.0058594 L588.814453,49.4013672 C588.814453,44.9032978 589.863759,41.4170046 591.962402,38.9423828 C594.061046,36.4677611 597.010723,35.2304688 600.811523,35.2304688 C603.928727,35.2304688 606.43749,36.0268475 608.337891,37.6196289 C610.238291,39.2124103 611.400389,41.4716651 611.824219,44.3974609 L607.886719,44.3974609 C607.148434,40.4462693 604.796895,38.4707031 600.832031,38.4707031 C598.193346,38.4707031 596.193854,39.3969634 594.833496,41.2495117 C593.473138,43.10206 592.786133,45.7851387 592.772461,49.2988281 L592.772461,51.7392578 C592.772461,55.0888839 593.538078,57.751455 595.069336,59.7270508 C596.600594,61.7026466 598.671862,62.6904297 601.283203,62.6904297 C602.759773,62.6904297 604.051752,62.5263688 605.15918,62.1982422 C606.266607,61.8701155 607.182614,61.3164101 607.907227,60.5371094 L607.907227,53.8310547 L600.996094,53.8310547 L600.996094,50.6318359 L611.824219,50.6318359 L611.824219,61.5830078 Z M627,65.9101562 C623.992172,65.9101562 621.544931,64.9223732 619.658203,62.9467773 C617.771475,60.9711815 616.828125,58.3291181 616.828125,55.0205078 L616.828125,54.3232422 C616.828125,52.1220593 617.248531,50.1567469 618.089355,48.4272461 C618.93018,46.6977453 620.105949,45.3442432 621.616699,44.3666992 C623.127449,43.3891553 624.76464,42.9003906 626.52832,42.9003906 C629.4131,42.9003906 631.655265,43.8505764 633.254883,45.7509766 C634.8545,47.6513767 635.654297,50.3720526 635.654297,53.9130859 L635.654297,55.4921875 L620.62207,55.4921875 C620.676758,57.6796984 621.315912,59.4467706 622.539551,60.793457 C623.76319,62.1401435 625.31835,62.8134766 627.205078,62.8134766 C628.544929,62.8134766 629.679683,62.5400418 630.609375,61.9931641 C631.539067,61.4462863 632.352536,60.7216842 633.049805,59.8193359 L635.367188,61.6240234 C633.507803,64.4814596 630.718769,65.9101562 627,65.9101562 Z M626.52832,46.0175781 C624.997063,46.0175781 623.711919,46.5747015 622.672852,47.6889648 C621.633784,48.8032282 620.991212,50.3652243 620.745117,52.375 L631.860352,52.375 L631.860352,52.0878906 C631.750976,50.1601466 631.23145,48.6665092 630.301758,47.6069336 C629.372066,46.547358 628.114266,46.0175781 626.52832,46.0175781 Z M643.631836,43.3105469 L643.754883,46.0996094 C645.450204,43.9667862 647.665025,42.9003906 650.399414,42.9003906 C655.088891,42.9003906 657.454101,45.545872 657.495117,50.8369141 L657.495117,65.5 L653.701172,65.5 L653.701172,50.8164062 C653.6875,49.2167889 653.321781,48.0341835 652.604004,47.2685547 C651.886227,46.5029259 650.768562,46.1201172 649.250977,46.1201172 C648.020502,46.1201172 646.940434,46.4482389 646.010742,47.1044922 C645.08105,47.7607455 644.356448,48.622065 643.836914,49.6884766 L643.836914,65.5 L640.042969,65.5 L640.042969,43.3105469 L643.631836,43.3105469 Z M672.424805,65.9101562 C669.416977,65.9101562 666.969736,64.9223732 665.083008,62.9467773 C663.19628,60.9711815 662.25293,58.3291181 662.25293,55.0205078 L662.25293,54.3232422 C662.25293,52.1220593 662.673336,50.1567469 663.51416,48.4272461 C664.354985,46.6977453 665.530754,45.3442432 667.041504,44.3666992 C668.552254,43.3891553 670.189444,42.9003906 671.953125,42.9003906 C674.837905,42.9003906 677.08007,43.8505764 678.679688,45.7509766 C680.279305,47.6513767 681.079102,50.3720526 681.079102,53.9130859 L681.079102,55.4921875 L666.046875,55.4921875 C666.101563,57.6796984 666.740717,59.4467706 667.964355,60.793457 C669.187994,62.1401435 670.743155,62.8134766 672.629883,62.8134766 C673.969733,62.8134766 675.104488,62.5400418 676.03418,61.9931641 C676.963872,61.4462863 677.77734,60.7216842 678.474609,59.8193359 L680.791992,61.6240234 C678.932608,64.4814596 676.143573,65.9101562 672.424805,65.9101562 Z M671.953125,46.0175781 C670.421867,46.0175781 669.136724,46.5747015 668.097656,47.6889648 C667.058589,48.8032282 666.416017,50.3652243 666.169922,52.375 L677.285156,52.375 L677.285156,52.0878906 C677.175781,50.1601466 676.656255,48.6665092 675.726562,47.6069336 C674.79687,46.547358 673.53907,46.0175781 671.953125,46.0175781 Z M696.193359,46.7148438 C695.619138,46.6191401 694.997074,46.5712891 694.327148,46.5712891 C691.838855,46.5712891 690.150395,47.6308488 689.261719,49.75 L689.261719,65.5 L685.467773,65.5 L685.467773,43.3105469 L689.15918,43.3105469 L689.220703,45.8740234 C690.46485,43.8915917 692.228504,42.9003906 694.511719,42.9003906 C695.250004,42.9003906 695.810545,42.9960928 696.193359,43.1875 L696.193359,46.7148438 Z M712.558594,65.5 C712.339843,65.0624978 712.16211,64.2832087 712.025391,63.1621094 C710.26171,64.9941498 708.156262,65.9101562 705.708984,65.9101562 C703.521473,65.9101562 701.727058,65.2915101 700.325684,64.0541992 C698.924309,62.8168883 698.223633,61.2480564 698.223633,59.3476562 C698.223633,57.0370978 699.102042,55.2426822 700.858887,53.9643555 C702.615731,52.6860288 705.086898,52.046875 708.272461,52.046875 L711.963867,52.046875 L711.963867,50.3037109 C711.963867,48.9775324 711.567387,47.9213906 710.774414,47.1352539 C709.981441,46.3491172 708.812508,45.9560547 707.267578,45.9560547 C705.914056,45.9560547 704.779301,46.2978481 703.863281,46.9814453 C702.947261,47.6650425 702.489258,48.4921826 702.489258,49.4628906 L698.674805,49.4628906 C698.674805,48.3554632 699.067867,47.2856497 699.854004,46.253418 C700.640141,45.2211862 701.706536,44.4042999 703.053223,43.8027344 C704.399909,43.2011689 705.879875,42.9003906 707.493164,42.9003906 C710.049817,42.9003906 712.052727,43.5395444 713.501953,44.8178711 C714.951179,46.0961978 715.703125,47.8564341 715.757812,50.0986328 L715.757812,60.3115234 C715.757812,62.348643 716.017576,63.968744 716.537109,65.171875 L716.537109,65.5 L712.558594,65.5 Z M706.262695,62.6083984 C707.452154,62.6083984 708.580073,62.3007843 709.646484,61.6855469 C710.712896,61.0703094 711.485349,60.2705127 711.963867,59.2861328 L711.963867,54.7333984 L708.990234,54.7333984 C704.341774,54.7333984 702.017578,56.0937364 702.017578,58.8144531 C702.017578,60.0039122 702.414059,60.9335904 703.207031,61.6035156 C704.000004,62.2734408 705.018548,62.6083984 706.262695,62.6083984 Z M726.852539,37.9375 L726.852539,43.3105469 L730.995117,43.3105469 L730.995117,46.2431641 L726.852539,46.2431641 L726.852539,60.0039062 C726.852539,60.8925826 727.037108,61.5590798 727.40625,62.003418 C727.775392,62.4477561 728.404292,62.6699219 729.292969,62.6699219 C729.730471,62.6699219 730.332027,62.5878914 731.097656,62.4238281 L731.097656,65.5 C730.099604,65.7734389 729.128911,65.9101562 728.185547,65.9101562 C726.490226,65.9101562 725.211918,65.3974661 724.350586,64.3720703 C723.489254,63.3466746 723.058594,61.8906344 723.058594,60.0039062 L723.058594,46.2431641 L719.018555,46.2431641 L719.018555,43.3105469 L723.058594,43.3105469 L723.058594,37.9375 L726.852539,37.9375 Z M734.009766,54.2001953 C734.009766,52.0263563 734.437007,50.0712977 735.291504,48.3349609 C736.146,46.5986241 737.335442,45.2587938 738.859863,44.3154297 C740.384285,43.3720656 742.124014,42.9003906 744.079102,42.9003906 C747.100601,42.9003906 749.544424,43.9462786 751.410645,46.0380859 C753.276865,48.1298933 754.209961,50.912092 754.209961,54.3847656 L754.209961,54.6513672 C754.209961,56.8115342 753.796391,58.7495031 752.969238,60.465332 C752.142086,62.1811609 750.95948,63.5175733 749.421387,64.4746094 C747.883293,65.4316454 746.116221,65.9101562 744.120117,65.9101562 C741.11229,65.9101562 738.675302,64.8642683 736.809082,62.7724609 C734.942862,60.6806536 734.009766,57.9121266 734.009766,54.4667969 L734.009766,54.2001953 Z M737.824219,54.6513672 C737.824219,57.112317 738.395014,59.0878832 739.536621,60.578125 C740.678228,62.0683668 742.206045,62.8134766 744.120117,62.8134766 C746.047861,62.8134766 747.579096,62.058113 748.713867,60.5473633 C749.848638,59.0366135 750.416016,56.920912 750.416016,54.2001953 C750.416016,51.7665894 749.838385,49.7944411 748.683105,48.2836914 C747.527826,46.7729417 745.993174,46.0175781 744.079102,46.0175781 C742.206045,46.0175781 740.695318,46.7626879 739.546875,48.2529297 C738.398432,49.7431715 737.824219,51.8759627 737.824219,54.6513672 Z M769.693359,46.7148438 C769.119138,46.6191401 768.497074,46.5712891 767.827148,46.5712891 C765.338855,46.5712891 763.650395,47.6308488 762.761719,49.75 L762.761719,65.5 L758.967773,65.5 L758.967773,43.3105469 L762.65918,43.3105469 L762.720703,45.8740234 C763.96485,43.8915917 765.728504,42.9003906 768.011719,42.9003906 C768.750004,42.9003906 769.310545,42.9960928 769.693359,43.1875 L769.693359,46.7148438 Z"
                      id="Text-{size:xxxxl,-family:sans-serif,-spacing:none,-tag:div}" fill="#111111"/>
            </g>
        </g>
    </g>
</svg>